<?xml version="1.0" encoding="UTF-8" standalone="no"?>
<!-- Created with Inkscape (http://www.inkscape.org/) -->

<svg
   xmlns:dc="http://purl.org/dc/elements/1.1/"
   xmlns:cc="http://creativecommons.org/ns#"
   xmlns:rdf="http://www.w3.org/1999/02/22-rdf-syntax-ns#"
   xmlns:svg="http://www.w3.org/2000/svg"
   xmlns="http://www.w3.org/2000/svg"
   xmlns:sodipodi="http://sodipodi.sourceforge.net/DTD/sodipodi-0.dtd"
   xmlns:inkscape="http://www.inkscape.org/namespaces/inkscape"
   width="48"
   height="48"
   id="svg3828"
   version="1.1"
   inkscape:version="0.48.0 r9654"
   sodipodi:docname="logo1.svg"
   style="display:inline">
  <defs
     id="defs3830" />
  <sodipodi:namedview
     id="base"
     pagecolor="#ffffff"
     bordercolor="#666666"
     borderopacity="1.0"
     inkscape:pageopacity="0.0"
     inkscape:pageshadow="2"
     inkscape:zoom="11.313708"
     inkscape:cx="23.30049"
     inkscape:cy="25.36038"
     inkscape:current-layer="layer3"
     showgrid="true"
     inkscape:grid-bbox="true"
     inkscape:document-units="px"
     showguides="true"
     inkscape:guide-bbox="true"
     inkscape:window-width="1280"
     inkscape:window-height="746"
     inkscape:window-x="0"
     inkscape:window-y="24"
     inkscape:window-maximized="1" />
  <metadata
     id="metadata3833">
    <rdf:RDF>
      <cc:Work
         rdf:about="">
        <dc:format>image/svg+xml</dc:format>
        <dc:type
           rdf:resource="http://purl.org/dc/dcmitype/StillImage" />
      </cc:Work>
    </rdf:RDF>
  </metadata>
  <g
     inkscape:groupmode="layer"
     id="layer3"
     inkscape:label="fond"
     style="display:inline">
    <path
       style="fill:#000000;fill-opacity:1;stroke:none"
       d="M 24,1 C 11.297451,1 1,11.297451 1,24 1,36.702549 11.297451,47 24,47 36.702549,47 47,36.702549 47,24 47,11.297451 36.702549,1 24,1 z m 6.1875,7.8125 c 4.970563,0 9,4.029437 9,9 0,3.396199 -1.90914,6.313431 -4.6875,7.84375 -0.0079,0.0044 -0.0233,-0.0043 -0.03125,0 -0.288325,0.12157 -0.593935,0.30072 -0.9375,0.5 -2.820364,1.635908 -6.389354,5.311521 -7.96875,8.21875 -0.17245,0.317433 -0.294442,0.603341 -0.40625,0.875 -1.59357,2.497125 -4.379394,4.15625 -7.5625,4.15625 -4.970563,0 -9,-4.029437 -9,-9 0,-3.702876 2.241888,-6.868508 5.4375,-8.25 L 14,22.125 c 0.08663,-0.04697 0.159619,-0.07258 0.25,-0.125 2.820364,-1.635908 6.389354,-5.311521 7.96875,-8.21875 C 22.324866,13.585921 22.416992,13.428147 22.5,13.25 24.067472,10.613324 26.897463,8.8125 30.1875,8.8125 z"
       id="path4473"
       inkscape:connector-curvature="0" />
  </g>
  <g
     id="layer1"
     inkscape:label="ronds"
     inkscape:groupmode="layer"
     style="display:inline">
    <path
       sodipodi:type="arc"
       style="fill:#000000;fill-opacity:1;stroke:none"
       id="path4414"
       sodipodi:cx="30.214285"
       sodipodi:cy="17.785715"
       sodipodi:rx="5.0714288"
       sodipodi:ry="5.0714283"
       d="m 35.285714,17.785715 a 5.0714288,5.0714283 0 1 1 -10.142858,0 5.0714288,5.0714283 0 1 1 10.142858,0 z"
       transform="matrix(0.98591545,0,0,0.98591555,0.51986232,0.26478689)" />
    <path
       style="fill:#000000;fill-opacity:1;stroke:none"
       d="m 17.46875,24.8125 c -2.927109,0 -5.3125,2.385391 -5.3125,5.3125 0,2.927109 2.385391,5.28125 5.3125,5.28125 2.927109,0 5.28125,-2.354141 5.28125,-5.28125 0,-2.927109 -2.354141,-5.3125 -5.28125,-5.3125 z M 17.5,28.15625 c 1.10457,0 2,0.89543 2,2 0,1.10457 -0.89543,2 -2,2 -1.10457,0 -2,-0.89543 -2,-2 0,-1.10457 0.89543,-2 2,-2 z"
       id="path4414-6"
       inkscape:connector-curvature="0" />
  </g>
</svg>
