<?xml version="1.0" encoding="UTF-8" standalone="no"?>
<!-- Created with Inkscape (http://www.inkscape.org/) -->

<svg
   xmlns:dc="http://purl.org/dc/elements/1.1/"
   xmlns:cc="http://creativecommons.org/ns#"
   xmlns:rdf="http://www.w3.org/1999/02/22-rdf-syntax-ns#"
   xmlns:svg="http://www.w3.org/2000/svg"
   xmlns="http://www.w3.org/2000/svg"
   xmlns:sodipodi="http://sodipodi.sourceforge.net/DTD/sodipodi-0.dtd"
   xmlns:inkscape="http://www.inkscape.org/namespaces/inkscape"
   width="48"
   height="48"
   id="svg3828"
   version="1.1"
   inkscape:version="0.48.0 r9654"
   sodipodi:docname="logo-mica.svg"
   style="display:inline">
  <defs
     id="defs3830" />
  <sodipodi:namedview
     id="base"
     pagecolor="#ffffff"
     bordercolor="#666666"
     borderopacity="1.0"
     inkscape:pageopacity="0.0"
     inkscape:pageshadow="2"
     inkscape:zoom="8"
     inkscape:cx="-0.58650003"
     inkscape:cy="6.0286882"
     inkscape:current-layer="layer3"
     showgrid="true"
     inkscape:grid-bbox="true"
     inkscape:document-units="px"
     showguides="true"
     inkscape:guide-bbox="true"
     inkscape:window-width="1680"
     inkscape:window-height="996"
     inkscape:window-x="0"
     inkscape:window-y="24"
     inkscape:window-maximized="1" />
  <metadata
     id="metadata3833">
    <rdf:RDF>
      <cc:Work
         rdf:about="">
        <dc:format>image/svg+xml</dc:format>
        <dc:type
           rdf:resource="http://purl.org/dc/dcmitype/StillImage" />
      </cc:Work>
    </rdf:RDF>
  </metadata>
  <g
     inkscape:groupmode="layer"
     id="layer3"
     inkscape:label="fond"
     style="display:inline">
    <path
       style="fill:#4a6c81;fill-opacity:1;stroke:none"
       d="M 24,1 C 11.297451,1 1,11.297451 1,24 1,36.702549 11.297451,47 24,47 36.702549,47 47,36.702549 47,24 47,11.297451 36.702549,1 24,1 z m 6.1875,7.8125 c 4.970563,0 9,4.029437 9,9 0,3.396199 -1.90914,6.313431 -4.6875,7.84375 -0.0079,0.0044 -0.0233,-0.0043 -0.03125,0 -0.288325,0.12157 -0.593935,0.30072 -0.9375,0.5 -2.820364,1.635908 -6.389354,5.311521 -7.96875,8.21875 -0.17245,0.317433 -0.294442,0.603341 -0.40625,0.875 -1.59357,2.497125 -4.379394,4.15625 -7.5625,4.15625 -4.970563,0 -9,-4.029437 -9,-9 0,-3.702876 2.241888,-6.868508 5.4375,-8.25 L 14,22.125 C 14.08663,22.07803 14.159619,22.05242 14.25,22 17.070364,20.364092 20.639354,16.688479 22.21875,13.78125 22.324866,13.585921 22.416992,13.428147 22.5,13.25 24.067472,10.613324 26.897463,8.8125 30.1875,8.8125 z"
       id="path4473"
       inkscape:connector-curvature="0" />
    <path
       style="fill:#4a6c81;fill-opacity:1"
       d="m 16.201878,35.195061 c -0.903811,-0.219131 -1.729876,-0.704375 -2.456169,-1.442795 -1.046765,-1.064243 -1.502602,-2.166973 -1.502602,-3.634991 0,-1.488441 0.463328,-2.588807 1.544942,-3.669116 1.099708,-1.09838 2.184989,-1.552616 3.715225,-1.554977 2.846062,-0.0044 5.169659,2.343672 5.169659,5.224093 0,1.47383 -0.473437,2.598465 -1.544942,3.669971 -0.769036,0.769037 -1.430768,1.156388 -2.401098,1.40551 -0.656757,0.168614 -1.834628,0.169689 -2.525015,0.0023 l 0,-10e-7 z m 2.293495,-3.255038 c 0.606914,-0.316993 1.018802,-1.036039 1.018802,-1.778554 0,-1.156327 -0.85548,-2.010835 -2.01312,-2.010835 -1.168394,0 -2.009676,0.842253 -2.009676,2.011994 0,1.029576 0.639457,1.799032 1.641938,1.97574 0.420067,0.07404 1.003088,-0.01086 1.362056,-0.198345 z"
       id="path3809"
       inkscape:connector-curvature="0" />
    <path
       style="fill:#4a6c81;fill-opacity:1"
       d="m 16.201878,35.195061 c -0.903811,-0.219131 -1.729876,-0.704375 -2.456169,-1.442795 -1.046765,-1.064243 -1.502602,-2.166973 -1.502602,-3.634991 0,-1.498233 0.455069,-2.578388 1.545797,-3.669116 1.098203,-1.098203 2.183658,-1.552615 3.71437,-1.554977 1.484632,-0.0023 2.761858,0.57215 3.805018,1.711332 0.906128,0.989537 1.364641,2.175279 1.364641,3.529046 0,1.480709 -0.458973,2.565547 -1.545798,3.653686 -0.768197,0.769126 -1.42925,1.156218 -2.400242,1.40551 -0.656757,0.168614 -1.834628,0.169689 -2.525015,0.0023 l 0,-10e-7 z m 2.293495,-3.255038 c 0.612502,-0.319912 1.008206,-1.017965 1.008206,-1.778554 0,-1.17504 -0.865245,-2.023159 -2.052752,-2.012123 -1.1117,0.01033 -1.960574,0.881525 -1.960574,2.012123 0,0.745313 0.411874,1.461595 1.024345,1.78142 0.558112,0.291439 1.419685,0.290192 1.980775,-0.0029 l 0,1e-6 z"
       id="path3811"
       inkscape:connector-curvature="0" />
    <path
       style="fill:#4a6c81;fill-opacity:1"
       d="m 29.509479,22.689361 c -1.860094,-0.331523 -3.345877,-1.633433 -3.930237,-3.443854 -0.27758,-0.85998 -0.260716,-2.127128 0.03986,-2.994576 0.707577,-2.04206 2.558854,-3.369385 4.699427,-3.369385 1.377251,0 2.444426,0.450314 3.449833,1.455721 1.017078,1.017077 1.455721,2.070673 1.455721,3.496554 0,2.582152 -2.016409,4.720549 -4.61458,4.893754 -0.35449,0.02363 -0.849499,0.0064 -1.10002,-0.03821 z"
       id="path3813"
       inkscape:connector-curvature="0" />
    <path
       style="fill:#4a6c81;fill-opacity:1"
       d="M 23.291651,46.93487 C 18.426563,46.785256 13.778245,45.09996 9.8566217,42.063861 8.8449709,41.280646 7.1692665,39.639287 6.2777703,38.558362 4.5784052,36.497909 3.0939106,33.824451 2.2777893,31.354711 1.3957943,28.685626 1.086619,26.813994 1.0805162,24.106867 1.0761275,22.160123 1.1697147,21.161194 1.5194035,19.422284 2.0931014,16.569435 3.1837604,13.921012 4.795368,11.467332 8.4919674,5.8392435 14.182786,2.2382004 20.94936,1.2453897 c 1.471081,-0.2158412 4.627715,-0.2158412 6.098796,0 7.089629,1.0402103 13.02557,4.967479 16.661481,11.0233783 1.594912,2.656452 2.628156,5.639368 3.059601,8.832895 0.180598,1.336767 0.204955,4.257288 0.0457,5.480077 -0.556666,4.274299 -2.048101,7.981335 -4.547392,11.302768 -0.846444,1.124881 -2.714528,3.041227 -3.859218,3.958921 -4.331569,3.472604 -9.638176,5.259919 -15.116682,5.091441 z m -4.594672,-7.576447 c 0.721742,-0.06729 1.759225,-0.353525 2.564123,-0.707418 1.70534,-0.749794 3.346034,-2.242169 4.08089,-3.711977 0.797383,-1.59487 1.809815,-2.981732 3.538443,-4.847075 1.51392,-1.633654 3.808116,-3.476588 5.194595,-4.172834 3.209031,-1.611474 5.126524,-4.653125 5.126524,-8.132019 0,-4.34548 -2.997702,-7.9651424 -7.322118,-8.8413037 C 31.314774,8.8313912 30.84935,8.8062114 29.890698,8.8382041 28.39777,8.8880272 27.61081,9.0728523 26.390176,9.660335 c -1.883285,0.906413 -3.047679,2.047738 -4.278242,4.193483 -1.856976,3.23803 -5.735517,7.068336 -8.640101,8.532649 -1.24089,0.62558 -2.631104,1.851721 -3.374673,2.976391 -0.5293889,0.800716 -1.0166864,1.897252 -1.2683399,2.854067 -0.1980635,0.75306 -0.2324011,1.067037 -0.231995,2.12132 5.303e-4,1.384758 0.1386536,2.202499 0.5570957,3.298288 1.2089792,3.165994 4.2221472,5.460431 7.5527982,5.751227 0.775629,0.06772 0.981904,0.06468 1.99026,-0.02934 l 0,0 z"
       id="path3815"
       inkscape:connector-curvature="0" />
    <path
       style="fill:#4a6c81;fill-opacity:1"
       d="m 29.509479,22.689361 c -1.860094,-0.331523 -3.345877,-1.633433 -3.930237,-3.443854 -0.27758,-0.85998 -0.260716,-2.127128 0.03986,-2.994576 0.707577,-2.04206 2.558854,-3.369385 4.699427,-3.369385 1.377251,0 2.444426,0.450314 3.449833,1.455721 1.017078,1.017077 1.455721,2.070673 1.455721,3.496554 0,2.585992 -2.012545,4.720292 -4.61458,4.893754 -0.35449,0.02363 -0.849499,0.0064 -1.10002,-0.03821 z"
       id="path3817"
       inkscape:connector-curvature="0" />
  </g>
  <g
     id="layer1"
     inkscape:label="ronds"
     inkscape:groupmode="layer"
     style="display:none">
    <path
       sodipodi:type="arc"
       style="fill:#4a6c81;fill-opacity:1;stroke:none"
       id="path4414"
       sodipodi:cx="30.214285"
       sodipodi:cy="17.785715"
       sodipodi:rx="5.0714288"
       sodipodi:ry="5.0714283"
       d="m 35.285714,17.785715 a 5.0714288,5.0714283 0 1 1 -10.142858,0 5.0714288,5.0714283 0 1 1 10.142858,0 z"
       transform="matrix(0.98591545,0,0,0.98591555,0.51986232,0.26478689)" />
    <path
       style="fill:#000000;fill-opacity:1;stroke:none"
       d="m 17.46875,24.8125 c -2.927109,0 -5.3125,2.385391 -5.3125,5.3125 0,2.927109 2.385391,5.28125 5.3125,5.28125 2.927109,0 5.28125,-2.354141 5.28125,-5.28125 0,-2.927109 -2.354141,-5.3125 -5.28125,-5.3125 z M 17.5,28.15625 c 1.10457,0 2,0.89543 2,2 0,1.10457 -0.89543,2 -2,2 -1.10457,0 -2,-0.89543 -2,-2 0,-1.10457 0.89543,-2 2,-2 z"
       id="path4414-6"
       inkscape:connector-curvature="0" />
    <path
       style="fill:#4a6c81;fill-opacity:1"
       d="m 16.201878,35.195061 c -0.903811,-0.219131 -1.729876,-0.704375 -2.456169,-1.442795 -1.046765,-1.064243 -1.502602,-2.166973 -1.502602,-3.634991 0,-1.498233 0.455069,-2.578388 1.545797,-3.669116 1.086727,-1.086726 2.181443,-1.550656 3.671194,-1.555815 1.496526,-0.0052 2.591991,0.456953 3.666039,1.546566 1.074579,1.090153 1.546796,2.218081 1.546796,3.69465 0,1.480709 -0.458973,2.565547 -1.545798,3.653686 -0.768197,0.769126 -1.42925,1.156218 -2.400242,1.40551 -0.656757,0.168614 -1.834628,0.169689 -2.525015,0.0023 l 0,-10e-7 z m 2.293495,-3.255038 c 0.612502,-0.319912 1.008206,-1.017965 1.008206,-1.778554 0,-1.17504 -0.865245,-2.023159 -2.052752,-2.012123 -1.1117,0.01033 -1.960574,0.881525 -1.960574,2.012123 0,0.745313 0.411874,1.461595 1.024345,1.78142 0.558112,0.291439 1.419685,0.290192 1.980775,-0.0029 l 0,1e-6 z"
       id="path3819"
       inkscape:connector-curvature="0" />
    <path
       style="fill:#4a6c81;fill-opacity:1"
       d="M 16.871474,35.357142 C 16.18875,35.26592 15.685657,35.117019 15.128962,34.841408 14.317727,34.439779 13.63687,33.85962 13.126359,33.134986 12.609256,32.400997 12.27094,31.482277 12.196043,30.608653 c -0.01891,-0.220531 -0.01889,-0.750678 2.9e-5,-0.970923 0.106018,-1.234157 0.69258,-2.442391 1.614501,-3.325642 1.198643,-1.148366 2.807155,-1.661561 4.453033,-1.420738 1.067609,0.156211 2.108078,0.680943 2.885184,1.455064 0.649414,0.646918 1.09622,1.384658 1.353443,2.234723 0.389524,1.287294 0.275591,2.698651 -0.313033,3.877734 -0.265952,0.532731 -0.575196,0.961871 -0.997802,1.384657 -0.760218,0.760542 -1.702689,1.259143 -2.749314,1.454487 -0.321076,0.05993 -0.477884,0.07339 -0.928088,0.07966 -0.376192,0.0052 -0.472629,0.0022 -0.642522,-0.02054 z m 1.086645,-0.04376 c 0.365606,-0.02828 0.535869,-0.05465 0.833783,-0.129114 0.631583,-0.157863 1.2165,-0.441714 1.720984,-0.835165 0.3908,-0.304787 0.82052,-0.734421 1.157643,-1.157412 0.346116,-0.434274 0.655105,-1.019287 0.810292,-1.534139 0.0946,-0.313861 0.159846,-0.687506 0.17214,-0.985864 l 0.0067,-0.16298 -0.01288,0.142277 c -0.09454,1.043913 -0.437726,1.871086 -1.110933,2.677683 -0.28171,0.337528 -0.772413,0.80892 -1.096141,1.053005 -0.488446,0.368279 -1.056202,0.634411 -1.69779,0.79583 -0.563544,0.141783 -1.372475,0.174488 -2.098907,0.08486 -0.753578,-0.09298 -1.50217,-0.402473 -2.184576,-0.903176 -0.51449,-0.377497 -1.06476,-0.950066 -1.417184,-1.474615 -0.220161,-0.327689 -0.446402,-0.78889 -0.548514,-1.11817 -0.112386,-0.36241 -0.171386,-0.652598 -0.217968,-1.072073 -0.02293,-0.206523 -0.02815,-0.151469 -0.0074,0.07853 0.05591,0.621001 0.260815,1.273685 0.571965,1.821891 0.344223,0.606475 0.911509,1.242303 1.542405,1.728763 0.760924,0.586721 1.602499,0.913432 2.546885,0.988735 0.210922,0.01682 0.818165,0.01749 1.029532,0.0011 l 0,0 z M 17.835258,32.14161 c 0.166091,-0.01854 0.361304,-0.06803 0.51871,-0.131497 0.563888,-0.227378 0.981786,-0.767199 1.118491,-1.444813 0.03634,-0.180123 0.03647,-0.632079 2.4e-4,-0.811545 -0.127641,-0.632233 -0.476475,-1.104793 -1.019691,-1.381361 -0.530622,-0.270156 -1.216079,-0.299433 -1.75804,-0.07509 -0.792147,0.32791 -1.278004,1.152309 -1.200386,2.036807 0.03176,0.361933 0.144642,0.686182 0.345526,0.992514 0.41832,0.637906 1.097181,0.915209 1.995149,0.814983 l 1e-6,0 z m 4.835722,-2.121936 c -0.0087,-0.459657 -0.02461,-0.645618 -0.081,-0.947092 -0.185298,-0.990754 -0.661807,-1.845353 -1.488566,-2.669681 -0.464614,-0.463248 -0.871578,-0.77051 -1.338591,-1.01065 -0.438771,-0.225618 -0.841318,-0.355296 -1.377854,-0.443866 -0.259325,-0.04281 -0.517603,-0.05844 -0.920233,-0.0557 l -0.364812,0.0025 0.456905,0.01043 c 0.581619,0.01327 0.855767,0.04645 1.292184,0.156358 0.862655,0.217258 1.69364,0.746572 2.421255,1.542268 0.689227,0.753718 1.077267,1.462762 1.269348,2.319408 0.08492,0.378725 0.121698,0.750492 0.121698,1.230184 0,0.175553 0.0041,0.319188 0.0091,0.319188 0.005,0 0.0053,-0.204001 5.37e-4,-0.453335 l 0,0 z M 12.279876,29.487808 c 0.118651,-1.147964 0.557003,-2.045372 1.449493,-2.967448 0.790059,-0.816248 1.64128,-1.312319 2.58863,-1.508588 0.189991,-0.03936 0.573192,-0.09162 0.700373,-0.09551 0.0771,-0.0024 0.07804,-0.0028 0.0173,-0.0082 -0.151888,-0.01349 -0.584988,0.04914 -0.91381,0.132144 -0.476449,0.120276 -0.916463,0.308001 -1.308924,0.558434 -0.673401,0.429702 -1.374735,1.121153 -1.816738,1.791136 -0.144849,0.219561 -0.33452,0.574076 -0.415862,0.777291 -0.23721,0.592614 -0.345735,1.199387 -0.33965,1.899011 l 0.0022,0.257009 0.01,-0.335539 c 0.0055,-0.184547 0.01763,-0.40943 0.02696,-0.49974 z"
       id="path3831"
       inkscape:connector-curvature="0" />
    <path
       style="fill:#4a6c81;fill-opacity:1"
       d="m 16.878613,35.356893 c -0.676789,-0.08758 -1.190991,-0.239098 -1.749651,-0.515547 -1.324292,-0.655317 -2.292518,-1.786727 -2.724117,-3.18324 -0.160774,-0.52021 -0.223491,-0.950945 -0.223491,-1.534915 0,-0.452525 0.02139,-0.667688 0.107886,-1.085149 0.342956,-1.65525 1.514837,-3.088245 3.083015,-3.769962 0.904785,-0.393328 1.895603,-0.522427 2.891351,-0.37673 1.066044,0.155982 2.109217,0.682078 2.885184,1.455064 0.616134,0.613766 1.038845,1.290249 1.304583,2.087778 0.2687,0.806421 0.342467,1.626873 0.221423,2.462719 -0.213085,1.471415 -1.049109,2.788684 -2.290866,3.609566 -0.538143,0.355747 -1.045818,0.579386 -1.649141,0.726471 -0.454594,0.110827 -0.674543,0.137036 -1.213654,0.144615 -0.368123,0.0052 -0.467512,0.002 -0.642522,-0.02067 z m 1.166001,-0.05062 c 0.365207,-0.0336 0.568276,-0.06843 0.83305,-0.142876 0.686697,-0.193073 1.249186,-0.486966 1.791832,-0.936208 0.194444,-0.160975 0.713533,-0.682592 0.882788,-0.887088 0.298644,-0.360826 0.449388,-0.589791 0.643638,-0.977622 0.244225,-0.487609 0.376961,-0.934547 0.446659,-1.503957 0.03218,-0.262886 0.03664,-1.145327 0.007,-1.392133 -0.07645,-0.637389 -0.212269,-1.097911 -0.480059,-1.627723 -0.269143,-0.532491 -0.567265,-0.934526 -1.062475,-1.432815 -0.841864,-0.847096 -1.667051,-1.289279 -2.721769,-1.458482 -0.251548,-0.04035 -0.512328,-0.05709 -0.890059,-0.05713 -0.685523,-7.2e-5 -1.158532,0.06677 -1.680374,0.237451 -0.634238,0.207445 -1.13184,0.500794 -1.706254,1.005881 -0.920178,0.80912 -1.493555,1.687395 -1.726507,2.644592 -0.10263,0.421708 -0.145334,0.821252 -0.14147,1.323613 l 0.0024,0.306983 0.01009,-0.385514 c 0.0055,-0.212032 0.01758,-0.452978 0.02673,-0.535435 0.129639,-1.167771 0.546501,-2.025269 1.43503,-2.951902 0.616583,-0.643024 1.319418,-1.117379 2.014345,-1.359514 0.517989,-0.180483 0.959265,-0.254281 1.599168,-0.26744 0.963517,-0.01981 1.643486,0.114801 2.355916,0.466402 0.55224,0.272544 1.090618,0.689785 1.585019,1.228383 0.424452,0.462397 0.704969,0.865968 0.933179,1.342536 0.316008,0.659914 0.458823,1.341955 0.458823,2.191196 0,1.14506 -0.267797,2.023515 -0.873545,2.865493 -0.333334,0.463327 -0.886675,1.029109 -1.348053,1.378362 -0.483437,0.36595 -1.057165,0.635 -1.69779,0.796176 -0.561817,0.141349 -1.377552,0.174366 -2.098907,0.08495 -1.092762,-0.135449 -2.156001,-0.719704 -3.032608,-1.666434 -0.801086,-0.865168 -1.221903,-1.770596 -1.328717,-2.858862 -0.0085,-0.08638 -0.01777,-0.182762 -0.02065,-0.214174 -0.0029,-0.03141 -0.0026,0.0232 5.32e-4,0.121365 0.0104,0.321883 0.07987,0.698872 0.199973,1.08515 0.226184,0.727477 0.651503,1.400841 1.284884,2.034222 0.975528,0.975529 2.014912,1.471981 3.253543,1.554028 0.218225,0.01445 0.836661,0.0077 1.044636,-0.01147 l 0,0 z m -0.123687,-3.177171 c 0.412458,-0.06673 0.724623,-0.22243 0.999816,-0.49869 0.382314,-0.383797 0.584538,-0.895333 0.584555,-1.478665 2.9e-5,-0.786892 -0.387122,-1.442335 -1.050908,-1.779199 -0.18272,-0.09273 -0.321123,-0.141118 -0.533463,-0.186514 -0.126998,-0.02715 -0.193586,-0.03205 -0.435487,-0.03205 -0.24199,0 -0.307912,0.0049 -0.432006,0.03182 -0.636347,0.138258 -1.126607,0.53409 -1.392737,1.124482 -0.199797,0.443239 -0.227971,1.014747 -0.07386,1.498266 0.05429,0.170337 0.207817,0.469333 0.311589,0.606826 0.108948,0.144352 0.310039,0.341714 0.433811,0.425766 0.411936,0.27974 0.990873,0.384677 1.588692,0.287962 z"
       id="path3823"
       inkscape:connector-curvature="0" />
    <path
       style="fill:#4a6c81;fill-opacity:1"
       d="m 17.057091,35.383952 c -0.957112,-0.08751 -1.765556,-0.367774 -2.534394,-0.878606 -1.217723,-0.80908 -2.036543,-2.063583 -2.282445,-3.496902 -0.0562,-0.32755 -0.06633,-0.46284 -0.06633,-0.885253 0,-0.430837 0.0094,-0.549795 0.07216,-0.91381 0.310849,-1.802727 1.570716,-3.340244 3.297512,-4.024219 0.89728,-0.355409 1.890973,-0.452547 2.862795,-0.279853 1.135987,0.201866 2.217698,0.809875 2.983324,1.676869 0.564142,0.638834 0.943948,1.33796 1.164975,2.144423 0.231341,0.844095 0.246295,1.785475 0.04181,2.631661 -0.313178,1.29594 -1.086476,2.407711 -2.188452,3.146337 -0.70623,0.473368 -1.467482,0.753382 -2.337192,0.8597 -0.219604,0.02684 -0.809924,0.03829 -1.013758,0.01965 z m 0.821001,-0.07056 c 0.424015,-0.02538 0.708661,-0.07105 1.035176,-0.166102 0.600025,-0.174669 1.076366,-0.409232 1.541172,-0.758914 0.558498,-0.420167 1.178424,-1.086517 1.525906,-1.640174 0.132196,-0.210633 0.33654,-0.62899 0.417377,-0.854502 0.17821,-0.49716 0.258903,-0.971873 0.273044,-1.606307 0.01163,-0.521637 -0.01924,-0.899947 -0.10869,-1.332338 -0.14243,-0.688457 -0.466758,-1.368062 -0.934801,-1.958805 -0.392456,-0.495339 -0.922579,-0.999886 -1.37185,-1.305664 -0.634396,-0.431776 -1.254079,-0.661408 -2.070351,-0.767198 -0.311731,-0.0404 -1.141006,-0.0366 -1.460906,0.0067 -1.092015,0.147793 -1.931441,0.557363 -2.771306,1.352165 -0.954078,0.902887 -1.457757,1.777482 -1.635869,2.840544 -0.06093,0.363656 -0.07128,0.50803 -0.07119,0.993262 1.13e-4,0.633993 0.04499,0.995741 0.185318,1.49375 0.216343,0.767789 0.629707,1.447502 1.291619,2.123867 0.693808,0.708956 1.466381,1.184881 2.306314,1.420746 0.506833,0.142326 1.171891,0.199505 1.849037,0.158975 l 0,0 z"
       id="path3821"
       inkscape:connector-curvature="0" />
    <path
       style="fill:#4a6c81;fill-opacity:1"
       d=""
       id="path3825"
       inkscape:connector-curvature="0" />
    <path
       style="fill:#4a6c81;fill-opacity:1"
       d=""
       id="path3827"
       inkscape:connector-curvature="0" />
    <path
       style="fill:#4a6c81;fill-opacity:1"
       d=""
       id="path3829"
       inkscape:connector-curvature="0" />
    <path
       style="fill:#4a6c81;fill-opacity:1"
       d=""
       id="path3833"
       inkscape:connector-curvature="0" />
    <path
       style="fill:#4a6c81;fill-opacity:1"
       d="m 17.17125,32.136977 c -0.227933,-0.03105 -0.435598,-0.09004 -0.607744,-0.172633 -0.589248,-0.282705 -1.010652,-0.936413 -1.06572,-1.653211 -0.0052,-0.06738 -0.0052,-0.233362 -3.9e-5,-0.301172 0.02657,-0.34919 0.123694,-0.65534 0.298285,-0.940203 0.02986,-0.04872 0.03242,-0.05173 0.04404,-0.05176 l 0.01234,-3.1e-5 -0.0263,0.04004 c -0.35658,0.542824 -0.426654,1.231095 -0.187021,1.836914 0.02709,0.06847 0.08871,0.196429 0.124158,0.257812 0.263036,0.455437 0.691496,0.789168 1.19535,0.931068 0.08201,0.0231 0.186918,0.04472 0.276237,0.05693 0.02346,0.0032 0.03143,0.0052 0.02064,0.0053 -0.0097,2.7e-5 -0.04757,-0.004 -0.08422,-0.009 z"
       id="path3835"
       inkscape:connector-curvature="0" />
    <path
       style="fill:#4a6c81;fill-opacity:1"
       d="m 17.776953,32.138859 c 0.429478,-0.0608 0.816083,-0.251394 1.124373,-0.554306 0.251213,-0.246832 0.42675,-0.540599 0.521784,-0.873225 0.01043,-0.03652 0.02304,-0.08469 0.02801,-0.10704 0.005,-0.02235 0.0097,-0.0387 0.01046,-0.03634 0.0037,0.01117 -0.03975,0.184033 -0.06714,0.266985 -0.139478,0.422435 -0.401005,0.778438 -0.739114,1.006121 -0.234832,0.158135 -0.494394,0.25076 -0.829552,0.296028 -0.03975,0.0054 -0.07842,0.0096 -0.08594,0.0094 -0.0075,-2.19e-4 0.0092,-0.0036 0.03711,-0.0076 z"
       id="path3837"
       inkscape:connector-curvature="0" />
    <path
       style="fill:#4a6c81;fill-opacity:1"
       d="m 19.449476,29.701335 c -0.03358,-0.156609 -0.110043,-0.356059 -0.195695,-0.510464 -0.269846,-0.48645 -0.719077,-0.834792 -1.25572,-0.97371 -0.04189,-0.01084 -0.06738,-0.01863 -0.05664,-0.01731 0.03461,0.0043 0.157073,0.03669 0.229932,0.06086 0.459676,0.152475 0.828234,0.450182 1.062891,0.858564 0.06744,0.117365 0.120101,0.236445 0.163364,0.369394 0.02806,0.08624 0.06411,0.230126 0.06042,0.241188 -8.16e-4,0.0024 -0.0047,-0.01039 -0.0086,-0.02852 l 0,0 z"
       id="path3839"
       inkscape:connector-curvature="0" />
    <path
       style="fill:#4a6c81;fill-opacity:1"
       d="m 15.831273,29.01589 c 0,-0.0035 0.0431,-0.06409 0.07775,-0.109249 0.284648,-0.370975 0.695372,-0.624026 1.163054,-0.716569 0.08281,-0.01638 0.170575,-0.02768 0.227947,-0.02934 0.02686,-7.77e-4 0.04092,-6.81e-4 0.03125,2.13e-4 -0.482696,0.0446 -0.913471,0.245806 -1.250155,0.583906 -0.07699,0.07731 -0.16374,0.179738 -0.212408,0.250786 -0.01255,0.01832 -0.01729,0.02233 -0.02637,0.02233 -0.0061,0 -0.01107,-9.36e-4 -0.01107,-0.0021 z"
       id="path3843"
       inkscape:connector-curvature="0" />
    <path
       style="fill:#4a6c81;fill-opacity:1"
       d="m 12.36643,28.656832 c 0,-0.008 0.04281,-0.14523 0.07319,-0.234566 0.223449,-0.657083 0.573219,-1.261981 1.035576,-1.790939 0.269366,-0.308168 0.580506,-0.589932 0.916629,-0.830086 0.779113,-0.556664 1.693819,-0.891925 2.642578,-0.968567 0.16727,-0.01351 0.229697,-0.01578 0.433594,-0.01576 0.203525,1.9e-5 0.276013,0.0026 0.435547,0.01568 0.431574,0.0353 0.846819,0.121539 1.25864,0.261393 0.0948,0.03219 0.237787,0.08513 0.242391,0.08973 0.0071,0.0071 -0.0096,0.0018 -0.08697,-0.02769 -0.581346,-0.22138 -1.203325,-0.334009 -1.844086,-0.333931 -0.349043,4.3e-5 -0.645787,0.02656 -0.97232,0.08688 -1.18848,0.219556 -2.284114,0.85951 -3.082376,1.800401 -0.400872,0.472497 -0.725154,1.028137 -0.932626,1.598006 -0.03181,0.08737 -0.09061,0.264716 -0.104145,0.314103 -0.0074,0.0271 -0.01562,0.04564 -0.01562,0.03535 z"
       id="path3845"
       inkscape:connector-curvature="0" />
    <path
       style="fill:#4a6c81;fill-opacity:1"
       d="m 12.392398,28.600977 c 0.150251,-0.506954 0.407309,-1.037773 0.718907,-1.484527 0.590925,-0.84724 1.41284,-1.508505 2.360593,-1.899198 0.554988,-0.228782 1.127218,-0.355868 1.742188,-0.38692 0.04834,-0.0024 0.166113,-0.0044 0.261719,-0.0044 0.655796,1.22e-4 1.292412,0.118821 1.887695,0.351969 l 0.04199,0.01645 0,0.01689 0,0.01688 -0.0498,-0.01952 c -0.280844,-0.110072 -0.600621,-0.195991 -0.940429,-0.252678 -0.0798,-0.01331 -0.220102,-0.03331 -0.275391,-0.03926 -0.07937,-0.0085 -0.300284,-0.02014 -0.365234,-0.01919 -0.03676,5.4e-4 -0.03561,7.55e-4 0.01953,0.0037 0.589689,0.031 1.064098,0.126175 1.538713,0.308699 0.03848,0.0148 0.07056,0.02691 0.07129,0.02691 7.29e-4,0 0.0013,0.769922 0.0013,1.710937 l 0,1.710938 -0.267653,0 -0.267654,0 -0.03215,-0.02786 c -0.116287,-0.100761 -0.251804,-0.19057 -0.397606,-0.263498 -0.21967,-0.109876 -0.463342,-0.179666 -0.720483,-0.206353 -0.132251,-0.01373 -0.407522,-0.01091 -0.527344,0.0054 -0.392805,0.05344 -0.744543,0.212723 -1.036582,0.469405 l -0.02592,0.02278 -1.851977,6.8e-5 -1.851977,6.8e-5 0.01077,-0.03838 c 0.03582,-0.127611 0.09956,-0.312351 0.15118,-0.438188 0.186709,-0.45516 0.435214,-0.85889 0.789841,-1.283203 0.127787,-0.152897 0.230419,-0.263804 0.414075,-0.44746 0.155726,-0.155726 0.225738,-0.221818 0.349804,-0.330219 0.85103,-0.743572 1.726407,-1.1176 2.823692,-1.206498 0.03838,-0.0031 0.07075,-0.0066 0.07194,-0.0078 0.0033,-0.0033 -0.01643,-0.0026 -0.11574,0.0037 -0.114138,0.0073 -0.168581,0.01335 -0.298157,0.03298 -0.339213,0.05139 -0.661512,0.131624 -0.950485,0.236627 -0.706926,0.256871 -1.315169,0.672961 -1.972656,1.349465 -0.640344,0.658863 -1.044157,1.315875 -1.261461,2.052424 -0.01196,0.04053 -0.02174,0.07433 -0.02174,0.07511 0,7.77e-4 -0.0094,0.0014 -0.02094,0.0014 l -0.02094,0 0.01708,-0.05762 z m 5.273694,-3.706993 c -0.01243,-7.77e-4 -0.03177,-7.7e-4 -0.04297,1.6e-5 -0.0112,7.86e-4 -10e-4,0.0014 0.0226,0.0014 0.02363,-9e-6 0.0328,-6.52e-4 0.02037,-0.0014 l 0,0 z"
       id="path3847"
       inkscape:connector-curvature="0" />
    <path
       style="fill:#4a6c81;fill-opacity:1"
       d="m 12.390383,28.606836 c 0.117292,-0.398395 0.31156,-0.834864 0.537658,-1.207979 0.439161,-0.72472 1.04887,-1.339765 1.77042,-1.785914 0.716294,-0.442899 1.503826,-0.702929 2.333908,-0.770618 0.153609,-0.01253 0.255936,-0.01631 0.441482,-0.01634 0.658555,-1.08e-4 1.290173,0.117561 1.890106,0.352123 l 0.04153,0.01624 0,0.01699 0,0.01699 -0.04004,-0.01573 C 19.02358,25.07827 18.64018,24.982699 18.217992,24.926554 18.10628,24.911698 17.981875,24.90294 17.82932,24.89919 c -0.08106,-0.002 -0.06466,-2.43e-4 0.08789,0.0094 0.492265,0.03103 0.971323,0.13146 1.388672,0.291111 0.04297,0.01644 0.08296,0.03167 0.08887,0.03385 l 0.01074,0.004 0,1.710555 0,1.710556 -0.267467,0 -0.267468,0 -0.04936,-0.04135 c -0.22214,-0.186103 -0.473041,-0.315661 -0.763364,-0.394179 -0.107268,-0.02901 -0.251393,-0.0547 -0.359375,-0.06407 -0.123833,-0.01074 -0.388289,-0.0078 -0.490235,0.0055 -0.400425,0.05209 -0.751492,0.209192 -1.050781,0.470239 l -0.02734,0.02385 -1.852059,1.2e-5 -1.85206,1.1e-5 0.0095,-0.03418 c 0.06627,-0.237531 0.163527,-0.488575 0.282606,-0.729489 0.20617,-0.417111 0.459284,-0.779789 0.835575,-1.197266 0.141163,-0.156613 0.417832,-0.427805 0.590074,-0.578394 0.83072,-0.726283 1.709803,-1.108179 2.759766,-1.198912 0.113171,-0.0098 0.154638,-0.01604 0.08789,-0.01326 -0.173474,0.0072 -0.353908,0.02982 -0.574154,0.07195 -0.388846,0.07438 -0.722957,0.178271 -1.060292,0.329682 -0.0757,0.03397 -0.249467,0.121484 -0.326492,0.164415 -0.336404,0.187504 -0.668664,0.431997 -1.005859,0.740163 -0.104466,0.09547 -0.380257,0.372107 -0.475087,0.476542 -0.370242,0.407738 -0.63431,0.785999 -0.841278,1.205078 -0.123274,0.249612 -0.19822,0.44549 -0.289578,0.756836 -0.0016,0.0054 -0.0064,0.0068 -0.02278,0.0068 l -0.02077,0 0.01524,-0.05176 z"
       id="path3849"
       inkscape:connector-curvature="0" />
    <path
       style="fill:#4a6c81;fill-opacity:1"
       d=""
       id="path3851"
       inkscape:connector-curvature="0" />
    <path
       style="fill:#4a6c81;fill-opacity:1"
       d=""
       id="path3853"
       inkscape:connector-curvature="0" />
    <path
       style="fill:#4a6c81;fill-opacity:1"
       d=""
       id="path3855"
       inkscape:connector-curvature="0" />
    <path
       style="fill:#4a6c81;fill-opacity:1"
       d="m 22.536569,28.654688 c -0.0012,-0.0032 -0.0095,-0.03047 -0.0183,-0.06055 -0.02486,-0.08463 -0.08672,-0.267598 -0.121113,-0.358224 -0.221195,-0.582786 -0.535631,-1.109378 -0.94884,-1.589042 -0.130149,-0.15108 -0.325045,-0.351939 -0.451429,-0.465241 -0.312727,-0.280356 -0.63758,-0.511652 -0.998047,-0.710612 -0.171182,-0.09448 -0.416726,-0.211147 -0.583984,-0.277463 -0.0064,-0.0026 -0.0096,-0.0054 -0.0071,-0.0064 0.0026,-9.54e-4 0.04035,0.01312 0.08398,0.03129 0.548874,0.228442 1.059529,0.552876 1.506935,0.957401 0.100853,0.09119 0.259369,0.248754 0.35202,0.349915 0.537179,0.586519 0.939037,1.291202 1.168038,2.048226 0.0129,0.04264 0.02269,0.07955 0.02175,0.08203 -0.0011,0.0029 -0.0025,0.0024 -0.0039,-0.0013 z"
       id="path3857"
       inkscape:connector-curvature="0" />
    <path
       style="fill:#4a6c81;fill-opacity:1"
       d=""
       id="path3859"
       inkscape:connector-curvature="0" />
    <path
       style="fill:#4a6c81;fill-opacity:1"
       d=""
       id="path3863"
       inkscape:connector-curvature="0" />
    <path
       style="fill:#4a6c81;fill-opacity:1"
       d="m 17.262509,35.400342 c -0.130095,-0.0053 -0.118157,-0.006 0.109375,-0.0067 0.379293,-0.0012 0.585002,-0.01153 0.788382,-0.03962 0.761261,-0.105155 1.431803,-0.341786 2.059752,-0.726876 0.671323,-0.411689 1.227185,-0.94833 1.654823,-1.5976 0.409333,-0.621481 0.687743,-1.339753 0.802042,-2.069197 0.0058,-0.03706 0.01182,-0.06738 0.01337,-0.06738 0.0015,0 0.0022,0.004 0.0014,0.0088 -7.89e-4,0.0048 -0.0067,0.04219 -0.01323,0.08301 -0.06906,0.434552 -0.199875,0.873975 -0.38492,1.292968 -0.04473,0.101282 -0.153273,0.318699 -0.208302,0.41724 -0.322985,0.578377 -0.741153,1.080989 -1.250475,1.502994 -0.208834,0.173031 -0.44341,0.337433 -0.683522,0.479042 -0.550283,0.324538 -1.16138,0.546836 -1.794922,0.652939 -0.360991,0.06046 -0.738255,0.08474 -1.09375,0.07039 z"
       id="path3867"
       inkscape:connector-curvature="0" />
    <path
       style="fill:#4a6c81;fill-opacity:1"
       d="m 15.580302,35.060877 c -0.0043,-0.0019 -0.04736,-0.01919 -0.0957,-0.03843 -0.247015,-0.09835 -0.491349,-0.218335 -0.722656,-0.354864 -0.541171,-0.319425 -1.024498,-0.734527 -1.420429,-1.219924 -0.57798,-0.708583 -0.958863,-1.547895 -1.110578,-2.447265 -0.01363,-0.08078 -0.03152,-0.209374 -0.03091,-0.222143 l 5.85e-4,-0.01223 0.0016,0.01172 c 0.07197,0.527857 0.205729,1.006607 0.413087,1.478516 0.04156,0.09459 0.152943,0.31811 0.205353,0.412109 0.359586,0.644923 0.837342,1.195468 1.425667,1.642874 0.381247,0.28993 0.821378,0.539415 1.261718,0.715197 0.05264,0.02101 0.09219,0.03813 0.08789,0.03805 -0.0043,-9e-5 -0.01133,-0.0017 -0.01563,-0.0036 l 0,0 z"
       id="path3869"
       inkscape:connector-curvature="0" />
    <path
       style="fill:#4a6c81;fill-opacity:1"
       d="m 12.171915,30.123622 c 0,-0.0097 7.62e-4,-0.01362 0.0017,-0.0088 9.31e-4,0.0048 9.31e-4,0.01274 0,0.01758 -9.31e-4,0.0048 -0.0017,8.79e-4 -0.0017,-0.0088 z"
       id="path3871"
       inkscape:connector-curvature="0" />
    <path
       style="fill:#4a6c81;fill-opacity:1"
       d=""
       id="path3873"
       inkscape:connector-curvature="0" />
    <path
       style="fill:#4a6c81;fill-opacity:1"
       d="m 12.185855,30.673956 c -1.69e-4,-0.0044 -0.0037,-0.04839 -0.0079,-0.09766 -0.01503,-0.177458 -0.01781,-0.250221 -0.01752,-0.458722 2.02e-4,-0.148173 0.0021,-0.232717 0.0069,-0.304687 0.0072,-0.108258 0.02183,-0.274404 0.02442,-0.277019 0.0027,-0.0027 0.0019,0.01244 -0.0042,0.07677 -0.01056,0.112891 -0.01399,0.238234 -0.01394,0.510443 4.3e-5,0.26201 0.0031,0.384881 0.0123,0.495022 0.0024,0.02929 0.0035,0.05566 0.0023,0.05859 -0.0013,0.0033 -0.0022,0.0022 -0.0024,-0.0027 z"
       id="path3875"
       inkscape:connector-curvature="0" />
  </g>
</svg>
